<svg width="24" height="24" viewBox="0 0 24 24" fill="none" xmlns="http://www.w3.org/2000/svg">
<rect width="24" height="24" rx="12" fill="#749857"/>
<path d="M17.9381 8.65919L11.4097 17.0615C11.2283 17.3033 10.9261 17.4242 10.5634 17.4242C10.2611 17.4242 10.0193 17.3638 9.83799 17.122L5.72749 13.0115C5.4857 12.8301 5.3648 12.5883 5.3648 12.3466C5.3648 12.1048 5.4857 11.8025 5.66704 11.6212C5.84839 11.4398 6.09018 11.3189 6.39242 11.3189C6.63422 11.3189 6.93646 11.4398 7.11781 11.6212L10.5029 15.0063L16.4269 7.45022C16.7291 7.02708 17.2732 6.96663 17.6963 7.14798L17.8172 7.26888C18.059 7.45022 18.1799 7.69202 18.1799 7.93381C18.1799 8.1756 18.1194 8.4174 17.9381 8.65919Z" fill="white"/>
</svg>
