<svg width="24" height="24" viewBox="0 0 24 24" fill="none" xmlns="http://www.w3.org/2000/svg">
<path d="M11.999 22C7.05568 21.9348 3.06416 17.9433 2.999 13C3.06416 8.05668 7.05568 4.06516 11.999 4C16.9423 4.06516 20.9338 8.05668 20.999 13C20.9338 17.9433 16.9423 21.9348 11.999 22ZM11.999 6C8.15417 6.05062 5.04962 9.15517 4.999 13C5.04962 16.8448 8.15417 19.9494 11.999 20C15.8438 19.9494 18.9484 16.8448 18.999 13C18.9484 9.15517 15.8438 6.05062 11.999 6ZM16.999 14H10.999V8H12.999V12H16.999V14ZM20.291 6.708L17.282 3.708L18.691 2.291L21.701 5.291L20.291 6.707V6.708ZM3.706 6.708L2.291 5.291L5.282 2.291L6.697 3.708L3.708 6.708H3.706Z" fill="#F7F7F7"/>
</svg>
