<svg width="24" height="24" viewBox="0 0 24 24" fill="none" xmlns="http://www.w3.org/2000/svg">
<path d="M20.8983 9.11834L12.2533 2.58709C12.1816 2.52925 12.0922 2.49772 12 2.49772C11.9078 2.49772 11.8184 2.52925 11.7467 2.58709L3.10166 9.11834C2.96894 9.20602 2.8556 9.31998 2.76865 9.45319C2.68169 9.58639 2.62297 9.73601 2.59611 9.89279C2.56924 10.0496 2.57481 10.2102 2.61246 10.3648C2.65011 10.5193 2.71904 10.6645 2.81501 10.7914C2.91097 10.9182 3.03192 11.0241 3.1704 11.1024C3.30887 11.1807 3.46192 11.2297 3.6201 11.2466C3.77828 11.2634 3.93823 11.2476 4.09007 11.2002C4.24191 11.1527 4.38242 11.0747 4.50291 10.9708L11.7467 5.50042C11.8184 5.44259 11.9078 5.41105 12 5.41105C12.0922 5.41105 12.1816 5.44259 12.2533 5.50042L19.4971 10.9708C19.6176 11.0747 19.7581 11.1527 19.9099 11.2002C20.0618 11.2476 20.2217 11.2634 20.3799 11.2466C20.5381 11.2297 20.6911 11.1807 20.8296 11.1024C20.9681 11.0241 21.089 10.9182 21.185 10.7914C21.2809 10.6645 21.3499 10.5193 21.3875 10.3648C21.4252 10.2102 21.4307 10.0496 21.4039 9.89279C21.377 9.73601 21.3183 9.58639 21.2313 9.45319C21.1444 9.31998 21.0311 9.20602 20.8983 9.11834Z" fill="#F7F7F7"/>
<path d="M19.6792 12.6729L12.3562 7.13125C12.2535 7.05417 12.1285 7.0125 12 7.0125C11.8715 7.0125 11.7465 7.05417 11.6437 7.13125L4.32083 12.6729C4.24662 12.7278 4.18643 12.7994 4.14516 12.882C4.10389 12.9645 4.0827 13.0556 4.08333 13.1479V20.9063C4.08538 21.0631 4.14859 21.2129 4.2595 21.3238C4.37041 21.4347 4.52024 21.498 4.67708 21.5H19.3229C19.4797 21.498 19.6296 21.4347 19.7405 21.3238C19.8514 21.2129 19.9146 21.0631 19.9167 20.9063V13.1479C19.9173 13.0556 19.8961 12.9645 19.8548 12.882C19.8136 12.7994 19.7534 12.7278 19.6792 12.6729ZM9.05499 13.7179C9.06838 13.6783 9.09397 13.6439 9.12811 13.6197C9.16224 13.5956 9.20316 13.5828 9.24499 13.5833H14.7867C14.8285 13.5828 14.8694 13.5956 14.9035 13.6197C14.9377 13.6439 14.9633 13.6783 14.9767 13.7179C14.9925 13.7574 14.9941 13.8011 14.9811 13.8416C14.9681 13.8821 14.9413 13.9168 14.9054 13.9396L12.2612 15.8158C12.1938 15.8625 12.1137 15.8875 12.0317 15.8875C11.9496 15.8875 11.8696 15.8625 11.8021 15.8158L9.12624 13.9396C9.09035 13.9168 9.06357 13.8821 9.05056 13.8416C9.03754 13.8011 9.03911 13.7574 9.05499 13.7179ZM7.75666 18.8558C7.72336 18.8406 7.69519 18.816 7.67553 18.7851C7.65586 18.7542 7.64555 18.7183 7.64583 18.6817V15.2142C7.64555 15.1775 7.65586 15.1416 7.67553 15.1107C7.69519 15.0798 7.72336 15.0553 7.75666 15.04C7.78675 15.0226 7.82088 15.0135 7.85562 15.0135C7.89036 15.0135 7.92449 15.0226 7.95458 15.04L10.4167 16.7896C10.4428 16.8069 10.4642 16.8304 10.479 16.8581C10.4939 16.8857 10.5016 16.9166 10.5016 16.9479C10.5016 16.9793 10.4939 17.0101 10.479 17.0378C10.4642 17.0654 10.4428 17.0889 10.4167 17.1063L7.95458 18.84C7.92591 18.8598 7.8925 18.8718 7.85775 18.8745C7.82299 18.8773 7.78812 18.8709 7.75666 18.8558ZM14.945 20.1779C14.9316 20.2176 14.906 20.2519 14.8719 20.2761C14.8377 20.3003 14.7968 20.313 14.755 20.3125H9.21333C9.1715 20.313 9.13058 20.3003 9.09644 20.2761C9.06231 20.2519 9.03671 20.2176 9.02333 20.1779C9.00745 20.1385 9.00588 20.0947 9.01889 20.0542C9.03191 20.0137 9.05868 19.9791 9.09458 19.9563L11.7387 18.08C11.8062 18.0334 11.8863 18.0084 11.9683 18.0084C12.0504 18.0084 12.1304 18.0334 12.1979 18.08L14.8421 19.9563C14.8837 19.9739 14.9172 20.0063 14.9362 20.0473C14.9553 20.0882 14.9584 20.1348 14.945 20.1779ZM16.3542 18.6817C16.3544 18.7183 16.3441 18.7542 16.3245 18.7851C16.3048 18.816 16.2766 18.8406 16.2433 18.8558C16.2132 18.8732 16.1791 18.8824 16.1444 18.8824C16.1096 18.8824 16.0755 18.8732 16.0454 18.8558L13.5833 17.1063C13.5572 17.0889 13.5358 17.0654 13.5209 17.0378C13.5061 17.0101 13.4984 16.9793 13.4984 16.9479C13.4984 16.9166 13.5061 16.8857 13.5209 16.8581C13.5358 16.8304 13.5572 16.8069 13.5833 16.7896L16.0296 15.0558C16.0597 15.0385 16.0938 15.0293 16.1285 15.0293C16.1633 15.0293 16.1974 15.0385 16.2275 15.0558C16.2608 15.0711 16.289 15.0957 16.3086 15.1266C16.3283 15.1575 16.3386 15.1934 16.3383 15.23L16.3542 18.6817Z" fill="#F7F7F7"/>
</svg>
