<svg width="24" height="24" viewBox="0 0 24 24" fill="none" xmlns="http://www.w3.org/2000/svg">
<path d="M18.2641 9.14246C18.2661 7.97832 17.9366 6.83766 17.3143 5.85384C16.6919 4.87002 15.8024 4.08368 14.7496 3.58675C13.6969 3.08981 12.5244 2.90282 11.3693 3.04763C10.2142 3.19243 9.12418 3.66306 8.22666 4.40448C7.32915 5.1459 6.66123 6.12749 6.30099 7.23449C5.94074 8.3415 5.90306 9.52818 6.19233 10.6558C6.48161 11.7834 7.0859 12.8054 7.93455 13.6023C8.78321 14.3992 9.84117 14.938 10.9848 15.1558C11.0288 15.1676 11.0679 15.1932 11.0964 15.2288C11.1248 15.2643 11.1412 15.3081 11.143 15.3536V17.4504C11.143 17.5029 11.1222 17.5532 11.0851 17.5903C11.048 17.6274 10.9977 17.6482 10.9452 17.6482H9.75835C9.49604 17.6482 9.24447 17.7524 9.05899 17.9379C8.87351 18.1234 8.76931 18.3749 8.76931 18.6373C8.76931 18.8996 8.87351 19.1511 9.05899 19.3366C9.24447 19.5221 9.49604 19.6263 9.75835 19.6263H10.9452C10.9977 19.6263 11.048 19.6471 11.0851 19.6842C11.1222 19.7213 11.143 19.7716 11.143 19.8241V21.011C11.143 21.2733 11.2472 21.5248 11.4327 21.7103C11.6182 21.8958 11.8697 22 12.132 22C12.3944 22 12.6459 21.8958 12.8314 21.7103C13.0169 21.5248 13.1211 21.2733 13.1211 21.011V19.8241C13.1211 19.7716 13.1419 19.7213 13.179 19.6842C13.2161 19.6471 13.2664 19.6263 13.3189 19.6263H14.5057C14.7681 19.6263 15.0196 19.5221 15.2051 19.3366C15.3906 19.1511 15.4948 18.8996 15.4948 18.6373C15.4948 18.3749 15.3906 18.1234 15.2051 17.9379C15.0196 17.7524 14.7681 17.6482 14.5057 17.6482H13.3189C13.2664 17.6482 13.2161 17.6274 13.179 17.5903C13.1419 17.5532 13.1211 17.5029 13.1211 17.4504V15.3536C13.1229 15.3081 13.1393 15.2643 13.1677 15.2288C13.1962 15.1932 13.2353 15.1676 13.2793 15.1558C14.6796 14.8891 15.9433 14.1429 16.853 13.0455C17.7627 11.948 18.2617 10.5679 18.2641 9.14246ZM7.97807 9.14246C7.97807 8.32088 8.2217 7.51775 8.67815 6.83464C9.13459 6.15152 9.78335 5.61909 10.5424 5.30469C11.3014 4.99028 12.1367 4.90802 12.9424 5.0683C13.7482 5.22859 14.4884 5.62421 15.0694 6.20516C15.6503 6.7861 16.0459 7.52627 16.2062 8.33206C16.3665 9.13785 16.2842 9.97308 15.9698 10.7321C15.6554 11.4912 15.123 12.1399 14.4399 12.5964C13.7568 13.0528 12.9536 13.2964 12.132 13.2964C11.031 13.2943 9.97562 12.856 9.19705 12.0775C8.41849 11.2989 7.98017 10.2435 7.97807 9.14246Z" fill="#F7F7F7"/>
</svg>
