<svg width="24" height="24" viewBox="0 0 24 24" fill="none" xmlns="http://www.w3.org/2000/svg">
<path d="M20.3029 8.36185H16.5299C16.4724 8.35854 16.4184 8.33295 16.3793 8.29051C16.3596 8.26813 16.3457 8.24125 16.3388 8.21223C16.3319 8.1832 16.3322 8.15293 16.3397 8.12406L17.1323 3.85173C17.1558 3.72162 17.1533 3.58816 17.1252 3.45899C17.097 3.32982 17.0437 3.20746 16.9683 3.09889C16.8928 2.99033 16.7967 2.89769 16.6855 2.82626C16.5742 2.75483 16.45 2.70601 16.3199 2.68259C16.1898 2.65917 16.0563 2.6616 15.9271 2.68976C15.798 2.71791 15.6756 2.77123 15.567 2.84668C15.3478 2.99904 15.198 3.23227 15.1507 3.49504L14.3105 8.1954C14.3015 8.2416 14.2769 8.28332 14.2409 8.31361C14.2048 8.34389 14.1595 8.36092 14.1124 8.36185H11.2351C11.1775 8.35854 11.1235 8.33295 11.0845 8.29051C11.0713 8.26476 11.0644 8.23623 11.0644 8.20729C11.0644 8.17834 11.0713 8.14981 11.0845 8.12406L11.8771 3.85173C11.9244 3.59316 11.8671 3.32639 11.7177 3.1101C11.5683 2.89382 11.3391 2.74574 11.0805 2.69844C10.822 2.65114 10.5552 2.7085 10.3389 2.85789C10.1226 3.00728 9.97455 3.23647 9.92725 3.49504L9.01571 8.1954C9.0064 8.24294 8.98065 8.28568 8.94296 8.31612C8.90527 8.34656 8.85806 8.36275 8.80963 8.36185H5.17141C4.90863 8.36185 4.65662 8.46624 4.47081 8.65205C4.285 8.83786 4.18061 9.08987 4.18061 9.35265C4.18061 9.61543 4.285 9.86744 4.47081 10.0533C4.65662 10.2391 4.90863 10.3435 5.17141 10.3435H8.38953C8.4183 10.3437 8.44668 10.3502 8.47269 10.3625C8.4987 10.3748 8.52171 10.3927 8.54013 10.4148C8.55964 10.4658 8.55964 10.5223 8.54013 10.5733L8.01699 13.4902C8.00794 13.5364 7.98335 13.5782 7.94729 13.6084C7.91124 13.6387 7.8659 13.6558 7.81883 13.6567H3.65747C3.39469 13.6567 3.14268 13.7611 2.95687 13.9469C2.77106 14.1327 2.66667 14.3847 2.66667 14.6475C2.66667 14.9103 2.77106 15.1623 2.95687 15.3481C3.14268 15.5339 3.39469 15.6383 3.65747 15.6383H7.42251C7.45128 15.6385 7.47966 15.645 7.50567 15.6574C7.53168 15.6697 7.55469 15.6875 7.57311 15.7096C7.58629 15.734 7.59319 15.7612 7.59319 15.7889C7.59319 15.8166 7.58629 15.8438 7.57311 15.8681L6.78047 20.1405C6.75705 20.2737 6.7601 20.4103 6.78945 20.5423C6.8188 20.6744 6.87387 20.7994 6.95152 20.9101C7.10835 21.1338 7.34762 21.2861 7.6167 21.3334C7.88579 21.3807 8.16264 21.3192 8.38635 21.1623C8.61007 21.0055 8.76233 20.7663 8.80963 20.4972L9.66568 15.7968C9.67494 15.7514 9.69984 15.7106 9.73605 15.6817C9.77226 15.6527 9.81748 15.6374 9.86384 15.6383H12.7411C12.7699 15.6385 12.7983 15.645 12.8243 15.6574C12.8503 15.6697 12.8733 15.6875 12.8917 15.7096C12.9114 15.7304 12.9254 15.7559 12.9323 15.7837C12.9393 15.8115 12.9389 15.8405 12.9314 15.8681L12.1387 20.1405C12.1153 20.2685 12.1173 20.3999 12.1447 20.5271C12.172 20.6544 12.2242 20.775 12.2982 20.8821C12.3721 20.9892 12.4665 21.0807 12.5758 21.1513C12.6851 21.2219 12.8073 21.2703 12.9353 21.2938C13.0633 21.3172 13.1947 21.3152 13.322 21.2878C13.4492 21.2604 13.5698 21.2083 13.6769 21.1343C13.784 21.0604 13.8755 20.966 13.9461 20.8567C14.0168 20.7474 14.0652 20.6252 14.0886 20.4972L14.9447 15.7968C14.9539 15.7514 14.9788 15.7106 15.015 15.6817C15.0512 15.6527 15.0965 15.6374 15.1428 15.6383H18.7969C19.0597 15.6383 19.3117 15.5339 19.4975 15.3481C19.6833 15.1623 19.7877 14.9103 19.7877 14.6475C19.7877 14.3847 19.6833 14.1327 19.4975 13.9469C19.3117 13.7611 19.0597 13.6567 18.7969 13.6567H15.5629C15.5341 13.6564 15.5058 13.6499 15.4798 13.6376C15.4537 13.6253 15.4307 13.6075 15.4123 13.5853C15.3923 13.5317 15.3923 13.4726 15.4123 13.4189L15.9434 10.502C15.9526 10.4565 15.9776 10.4158 16.0138 10.3868C16.05 10.3579 16.0952 10.3425 16.1415 10.3435H20.3425C20.6053 10.3435 20.8573 10.2391 21.0431 10.0533C21.2289 9.86744 21.3333 9.61543 21.3333 9.35265C21.3333 9.08987 21.2289 8.83786 21.0431 8.65205C20.8573 8.46624 20.6053 8.36185 20.3425 8.36185H20.3029ZM13.3435 13.4902C13.3362 13.5358 13.3131 13.5773 13.2784 13.6077C13.2437 13.6381 13.1994 13.6554 13.1533 13.6567H10.2681C10.2393 13.6564 10.2109 13.6499 10.1849 13.6376C10.1589 13.6253 10.1359 13.6075 10.1175 13.5853C10.0978 13.563 10.0838 13.5361 10.0769 13.5071C10.07 13.478 10.0703 13.4478 10.0778 13.4189L10.6089 10.502C10.6165 10.4572 10.6398 10.4166 10.6747 10.3875C10.7096 10.3584 10.7537 10.3428 10.7992 10.3435H13.6844C13.7131 10.3437 13.7415 10.3502 13.7675 10.3625C13.7935 10.3748 13.8165 10.3927 13.835 10.4148C13.8546 10.4356 13.8686 10.4611 13.8756 10.4889C13.8825 10.5166 13.8822 10.5457 13.8746 10.5733L13.3435 13.4902Z" fill="#F7F7F7"/>
</svg>
