<svg width="24" height="24" viewBox="0 0 24 24" fill="none" xmlns="http://www.w3.org/2000/svg">
<path d="M16.9131 15.4167C16.9176 14.6168 16.6816 13.8339 16.2359 13.1697C15.7901 12.5055 15.155 11.9906 14.4131 11.6917L10.1631 10.025C9.84127 9.89105 9.57544 9.65035 9.4103 9.3434C9.24515 9.03645 9.19077 8.68199 9.2563 8.33965C9.32184 7.99731 9.50328 7.68799 9.77012 7.46373C10.037 7.23947 10.3729 7.11397 10.7214 7.10833H14.8881C15.2196 7.10833 15.5375 6.97664 15.7719 6.74222C16.0064 6.5078 16.1381 6.18985 16.1381 5.85833C16.1381 5.52681 16.0064 5.20887 15.7719 4.97445C15.5375 4.74003 15.2196 4.60833 14.8881 4.60833H13.2214C13.1661 4.60833 13.1132 4.58638 13.0741 4.54731C13.035 4.50824 13.0131 4.45525 13.0131 4.4V3.25C13.0131 2.91848 12.8814 2.60054 12.6469 2.36612C12.4125 2.1317 12.0946 2 11.7631 2C11.4315 2 11.1136 2.1317 10.8792 2.36612C10.6448 2.60054 10.5131 2.91848 10.5131 3.25V4.39167C10.5132 4.44415 10.4936 4.49476 10.4581 4.53339C10.4225 4.57201 10.3737 4.5958 10.3214 4.6C9.42512 4.67938 8.58161 5.05802 7.92663 5.67497C7.27166 6.29192 6.84332 7.11131 6.71055 8.00125C6.57778 8.89119 6.74831 9.79992 7.19468 10.5812C7.64105 11.3624 8.33731 11.9708 9.1714 12.3083L13.4214 13.975C13.7432 14.109 14.009 14.3497 14.1742 14.6566C14.3393 14.9635 14.3937 15.318 14.3282 15.6604C14.2626 16.0027 14.0812 16.312 13.8143 16.5363C13.5475 16.7605 13.2116 16.886 12.8631 16.8917H8.6964C8.36488 16.8917 8.04693 17.0234 7.81251 17.2578C7.57809 17.4922 7.4464 17.8101 7.4464 18.1417C7.4464 18.4732 7.57809 18.7911 7.81251 19.0255C8.04693 19.26 8.36488 19.3917 8.6964 19.3917H10.3631C10.4183 19.3917 10.4713 19.4136 10.5104 19.4527C10.5494 19.4918 10.5714 19.5447 10.5714 19.6V20.75C10.5714 21.0815 10.7031 21.3995 10.9375 21.6339C11.1719 21.8683 11.4899 22 11.8214 22C12.1529 22 12.4709 21.8683 12.7053 21.6339C12.9397 21.3995 13.0714 21.0815 13.0714 20.75V19.6083C13.0712 19.5558 13.0909 19.5052 13.1264 19.4666C13.1619 19.428 13.2107 19.4042 13.2631 19.4C14.2586 19.3106 15.1848 18.8526 15.86 18.1157C16.5353 17.3788 16.9108 16.4162 16.9131 15.4167Z" fill="#F7F7F7"/>
</svg>
